# xmcd
#
# Track frame offsets:
#	150
#	31238
#	62973
#	86975
#	117268
#	141279
#	165458
#	182717
#	210627
#	236787
#	290571
#	318397
#
# Disc length: 4420 seconds
#
# Revision: 2
# Processed by: cddbd v1.5.2PL0 Copyright (c) Steve Scherf et al.
# Submitted via: EasyCDDAExtractor 7.0.6.1
#
DISCID=b411420c
DTITLE=김목경 - LIVE IN CONCERT
DYEAR=2002
DGENRE=Blues
TTITLE0=여의도우먼
TTITLE1=GOT MY MOJO WORKING
TTITLE2=플레이더블루스
TTITLE3=HOOCHIE COOCHIE MAN
TTITLE4=처음그리고그다음에
TTITLE5=부르지마
TTITLE6=ALBERTA
TTITLE7=어느60대노부부이야기
TTITLE8=언덕위의여자
TTITLE9=HOW BLUE CAN YOU GET
TTITLE10=외로운방랑자
TTITLE11=I CAN'T STOP LOVING MY BABY AT NIGHT
EXTD=
EXTT0=
EXTT1=
EXTT2=
EXTT3=
EXTT4=
EXTT5=
EXTT6=
EXTT7=
EXTT8=
EXTT9=
EXTT10=
EXTT11=
PLAYORDER=
